<svg width="20" height="20" viewBox="0 0 20 20" fill="none" xmlns="http://www.w3.org/2000/svg">
<path d="M13.75 5.625C13.6914 5.6831 13.6449 5.75223 13.6132 5.82839C13.5815 5.90455 13.5651 5.98624 13.5651 6.06875C13.5651 6.15126 13.5815 6.23295 13.6132 6.30911C13.6449 6.38527 13.6914 6.4544 13.75 6.5125L16.625 9.3875H1.9125C1.74674 9.3875 1.58777 9.45335 1.47056 9.57056C1.35335 9.68777 1.2875 9.84674 1.2875 10.0125C1.2875 10.1783 1.35335 10.3372 1.47056 10.4544C1.58777 10.5716 1.74674 10.6375 1.9125 10.6375H16.6125L13.75 13.4937C13.6336 13.6109 13.5683 13.7693 13.5683 13.9344C13.5683 14.0995 13.6336 14.2579 13.75 14.375C13.8671 14.4914 14.0255 14.5567 14.1906 14.5567C14.3557 14.5567 14.5141 14.4914 14.6312 14.375L18.6062 10.4C18.6598 10.3487 18.7023 10.287 18.7314 10.2188C18.7605 10.1506 18.7755 10.0773 18.7755 10.0031C18.7755 9.92898 18.7605 9.8556 18.7314 9.7874C18.7023 9.7192 18.6598 9.65758 18.6062 9.60625L14.6375 5.625C14.5794 5.56642 14.5103 5.51992 14.4341 5.48819C14.3579 5.45646 14.2763 5.44012 14.1937 5.44012C14.1112 5.44012 14.0296 5.45646 13.9534 5.48819C13.8772 5.51992 13.8081 5.56642 13.75 5.625Z" fill="black"/>
</svg>
