<svg width="15" height="15" viewBox="0 0 15 15" fill="none" xmlns="http://www.w3.org/2000/svg">
<path d="M4.99441 4.86884H9.53827C9.6638 4.86884 9.76561 4.76721 9.76561 4.64167C9.76561 4.51614 9.6638 4.41418 9.53827 4.41418H4.99441C4.86887 4.41418 4.76724 4.51614 4.76724 4.64167C4.76724 4.76721 4.86887 4.86884 4.99441 4.86884Z" fill="black" fill-opacity="0.5"/>
<path d="M10.1979 5.95787H5.93965C5.81414 5.95787 5.71233 6.0595 5.71233 6.18504C5.71233 6.31058 5.81414 6.41253 5.93965 6.41253H10.1979C10.3234 6.41253 10.4251 6.31058 10.4251 6.18504C10.4251 6.0595 10.3234 5.95787 10.1979 5.95787Z" fill="black" fill-opacity="0.5"/>
<path d="M8.9852 7.50153H4.99441C4.86887 7.50153 4.76724 7.60316 4.76724 7.72869C4.76724 7.8542 4.86887 7.95586 4.99441 7.95586H8.9852C9.11056 7.95586 9.21237 7.8542 9.21237 7.72869C9.21234 7.60316 9.11056 7.50153 8.9852 7.50153Z" fill="black" fill-opacity="0.5"/>
<path d="M11.6243 2.52797H3.37573C2.49706 2.52797 1.78189 3.18897 1.78189 4.00184V8.53787C1.78189 9.35042 2.49706 10.0114 3.37573 10.0114H8.24001L11.7501 12.472V10.0071C12.5703 9.94743 13.2181 9.31125 13.2181 8.53787V4.00184C13.2181 3.18897 12.503 2.52797 11.6243 2.52797ZM12.5363 8.53787C12.5363 8.97445 12.127 9.32962 11.6243 9.32962H11.0683V11.1613L8.45519 9.32962H3.3757C2.87285 9.32962 2.46366 8.97445 2.46366 8.53787V4.00184C2.46366 3.56493 2.87285 3.2098 3.3757 3.2098H11.6243C12.127 3.2098 12.5363 3.56496 12.5363 4.00184V8.53787V8.53787Z" fill="black" fill-opacity="0.5"/>
</svg>
