<svg width="15" height="15" viewBox="0 0 15 15" fill="none" xmlns="http://www.w3.org/2000/svg">
<path d="M7.50234 11.3965C6.32051 11.3965 5.16941 11.0783 4.08094 10.4508C2.96364 9.8066 1.96222 8.86295 1.10426 7.6459C1.03981 7.56653 1.03286 7.45107 1.09462 7.3633C1.95396 6.14183 2.95781 5.19504 4.07824 4.54922C5.16692 3.92174 6.31852 3.60352 7.5007 3.60352C7.50164 3.60352 7.50237 3.60352 7.50331 3.60352C8.68565 3.60398 9.83675 3.92265 10.9247 4.55065C12.0434 5.19647 13.0454 6.14285 13.9027 7.36345C13.9304 7.40291 13.9453 7.44996 13.9453 7.49815V7.50185C13.9453 7.55007 13.9304 7.59709 13.9027 7.63655C13.0454 8.85718 12.0436 9.80355 10.9252 10.4493C9.8376 11.0773 8.68685 11.396 7.50492 11.3965C7.50407 11.3965 7.50319 11.3965 7.50234 11.3965ZM1.57462 7.4978C3.17865 9.71115 5.27845 10.9277 7.50234 10.9277C7.50319 10.9277 7.50396 10.9277 7.50478 10.9277C9.72703 10.9269 11.8239 9.71106 13.4244 7.5C11.8239 5.28894 9.72645 4.07314 7.50317 4.07227C7.50249 4.07227 7.50144 4.07227 7.50076 4.07227C5.2771 4.07227 3.17836 5.28694 1.57462 7.4978Z" fill="black" fill-opacity="0.5"/>
<path d="M7.49452 10.2393C5.98409 10.2393 4.75526 9.01043 4.75526 7.5C4.75526 5.98957 5.98409 4.76074 7.49452 4.76074C9.00495 4.76074 10.2338 5.98957 10.2338 7.5C10.2338 9.01043 9.00492 10.2393 7.49452 10.2393ZM7.49452 5.22949C6.24258 5.22949 5.22401 6.24806 5.22401 7.5C5.22401 8.75194 6.24258 9.77051 7.49452 9.77051C8.74647 9.77051 9.76503 8.75194 9.76503 7.5C9.76503 6.24806 8.74647 5.22949 7.49452 5.22949Z" fill="black" fill-opacity="0.5"/>
<path d="M8.76894 7.69043C8.6395 7.69043 8.53456 7.58549 8.53456 7.45605C8.53456 6.89065 8.07457 6.43066 7.50917 6.43066C7.37974 6.43066 7.2748 6.32572 7.2748 6.19629C7.2748 6.06686 7.37974 5.96191 7.50917 5.96191C8.33303 5.96191 9.00331 6.63217 9.00331 7.45605C9.00331 7.58549 8.89834 7.69043 8.76894 7.69043Z" fill="black" fill-opacity="0.5"/>
</svg>
